/* XPM */
static char *collectible[] = {
"32 32 6 1",
"  c #A8A8A8",
". c #FFD700",
"+ c #FFA500",
"@ c #989898",
"# c #FF8C00",
"$ c #888888",
"                @@@@@@@@@@@@@@@@",
"                @@@@@@@@@@@@@@@@",
"           ........@@@@@@@@@@@@$",
"         ..++++++++..@@@@@@@@@@$",
"        .+++######+++.@@@@@@@@@$",
"       .++##########++.@@@@@@@@$",
"      .++############++.@@@@@@@$",
"     .++##############++.@@@@@@$",
"     .+################++.@@@@@$",
"    .++################++.@@@@@$",
"    .+##################+.@@@@@$",
"    .+##################+.@@@@@$",
"    .+##################+.@@@@@$",
"    .+##################+.@@@@@$",
"    .+##################+.@@@@@$",
"    .+##################+.@@@@@$",
"     .+################++.@@@@@$",
"     .++##############++.@@@@@@$",
"      .++############++.@@@@@@@$",
"       .++##########++.@@@@@@@@$",
"        .+++######+++.@@@@@@@@@$",
"         ..++++++++..@@@@@@@@@@$",
"           ........@@@@@@@@@@@@$",
"$$$$$$$$$$$$$$$$$$$$$$$$$$$$$$$$",
"$$$$$$$$$$$$$$$$$$$$$$$$$$$$$$$$",
"$$$$$$$$$$$$$$$$$$$$$$$$$$$$$$$$",
"$$$$$$$$$$$$$$$$$$$$$$$$$$$$$$$$",
"$$$$$$$$$$$$$$$$$$$$$$$$$$$$$$$$",
"$$$$$$$$$$$$$$$$$$$$$$$$$$$$$$$$",
"$$$$$$$$$$$$$$$$$$$$$$$$$$$$$$$$",
"$$$$$$$$$$$$$$$$$$$$$$$$$$$$$$$$",
"$$$$$$$$$$$$$$$$$$$$$$$$$$$$$$$$"
};
