/* XPM */
static char *wall[] = {
"32 32 5 1",
"  c #808080",
". c #8B4513",
"+ c #654321",
"# c #4A3210",
"@ c #2F1810",
"++++++++++++++++++++++++++++++++",
"++++++++++++++++++++++++++++++++",
"++..##..++..##..++..##..++..##++",
"++..##..++..##..++..##..++..##++",
"++..##..++..##..++..##..++..##++",
"++..##..++..##..++..##..++..##++",
"++++++++++++++++++++++++++++++++",
"++++++++++++++++++++++++++++++++",
"++..##..++..##..++..##..++..##++",
"++..##..++..##..++..##..++..##++",
"++..##..++..##..++..##..++..##++",
"++..##..++..##..++..##..++..##++",
"++++++++++++++++++++++++++++++++",
"++++++++++++++++++++++++++++++++",
"++..##..++..##..++..##..++..##++",
"++..##..++..##..++..##..++..##++",
"++..##..++..##..++..##..++..##++",
"++..##..++..##..++..##..++..##++",
"++++++++++++++++++++++++++++++++",
"++++++++++++++++++++++++++++++++",
"++..##..++..##..++..##..++..##++",
"++..##..++..##..++..##..++..##++",
"++..##..++..##..++..##..++..##++",
"++..##..++..##..++..##..++..##++",
"++++++++++++++++++++++++++++++++",
"++++++++++++++++++++++++++++++++",
"++..##..++..##..++..##..++..##++",
"++..##..++..##..++..##..++..##++",
"++..##..++..##..++..##..++..##++",
"++..##..++..##..++..##..++..##++",
"++++++++++++++++++++++++++++++++",
"++++++++++++++++++++++++++++++++"
};
